<?xml version="1.0" encoding="UTF-8" standalone="no"?>
<!-- Created with Inkscape (http://www.inkscape.org/) -->

<svg
   width="412"
   height="883"
   viewBox="0 0 109.00833 233.62708"
   version="1.1"
   id="svg1"
   inkscape:version="1.3.2 (091e20ef0f, 2023-11-25, custom)"
   sodipodi:docname="choose-mode.svg"
   xml:space="preserve"
   inkscape:export-filename="choose-mode.png"
   inkscape:export-xdpi="96"
   inkscape:export-ydpi="96"
   xmlns:inkscape="http://www.inkscape.org/namespaces/inkscape"
   xmlns:sodipodi="http://sodipodi.sourceforge.net/DTD/sodipodi-0.dtd"
   xmlns:xlink="http://www.w3.org/1999/xlink"
   xmlns="http://www.w3.org/2000/svg"
   xmlns:svg="http://www.w3.org/2000/svg"><sodipodi:namedview
     id="namedview1"
     pagecolor="#505050"
     bordercolor="#ffffff"
     borderopacity="1"
     inkscape:showpageshadow="0"
     inkscape:pageopacity="0"
     inkscape:pagecheckerboard="1"
     inkscape:deskcolor="#505050"
     inkscape:document-units="px"
     inkscape:zoom="0.69694335"
     inkscape:cx="30.131574"
     inkscape:cy="476.36583"
     inkscape:window-width="1280"
     inkscape:window-height="706"
     inkscape:window-x="416"
     inkscape:window-y="187"
     inkscape:window-maximized="0"
     inkscape:current-layer="g527" /><defs
     id="defs1"><linearGradient
       id="linearGradient29"
       inkscape:collect="always"><stop
         style="stop-color:#9e0000;stop-opacity:1;"
         offset="0"
         id="stop29" /><stop
         style="stop-color:#ff4747;stop-opacity:1;"
         offset="1"
         id="stop28" /></linearGradient><linearGradient
       id="linearGradient26"
       inkscape:collect="always"><stop
         style="stop-color:#ffffff;stop-opacity:1;"
         offset="0"
         id="stop26" /><stop
         style="stop-color:#ffffff;stop-opacity:0;"
         offset="1"
         id="stop27" /></linearGradient><linearGradient
       id="linearGradient24"
       inkscape:collect="always"><stop
         style="stop-color:#102589;stop-opacity:1;"
         offset="0"
         id="stop24" /><stop
         style="stop-color:#4976c5;stop-opacity:1;"
         offset="1"
         id="stop23" /></linearGradient><linearGradient
       id="linearGradient1"
       inkscape:collect="always"><stop
         style="stop-color:#4caf50;stop-opacity:1;"
         offset="0"
         id="stop1" /><stop
         style="stop-color:#5faf50;stop-opacity:1;"
         offset="1"
         id="stop2" /></linearGradient><radialGradient
       inkscape:collect="always"
       xlink:href="#linearGradient1"
       id="radialGradient2"
       cx="52.916916"
       cy="84.586403"
       fx="52.916916"
       fy="84.586403"
       r="54.504166"
       gradientTransform="matrix(1.8661312,0,0,1.125221,-47.291465,-79.841847)"
       gradientUnits="userSpaceOnUse" /><linearGradient
       inkscape:collect="always"
       xlink:href="#linearGradient1"
       id="linearGradient3"
       gradientUnits="userSpaceOnUse"
       gradientTransform="matrix(0.85837866,0,0,2.2491642,7.9275879,1.103379)"
       x1="2.9870336"
       y1="78.827148"
       x2="105.53517"
       y2="78.827148" /><linearGradient
       inkscape:collect="always"
       xlink:href="#linearGradient1"
       id="linearGradient5"
       x1="3.3960769"
       y1="92.459846"
       x2="105.12612"
       y2="92.459846"
       gradientUnits="userSpaceOnUse"
       gradientTransform="matrix(0.85837866,0,0,2.2491642,7.9275879,-29.5588)" /><linearGradient
       inkscape:collect="always"
       xlink:href="#linearGradient1"
       id="linearGradient10"
       x1="45.298378"
       y1="93.7342"
       x2="60.527569"
       y2="93.7342"
       gradientUnits="userSpaceOnUse"
       gradientTransform="matrix(2.1959235,0,0,2.1959235,-63.279885,-131.01913)" /><linearGradient
       inkscape:collect="always"
       xlink:href="#linearGradient1"
       id="linearGradient15"
       gradientUnits="userSpaceOnUse"
       gradientTransform="matrix(2.1959235,0,0,2.1959235,-63.279885,-131.01913)"
       x1="32.126011"
       y1="108.61935"
       x2="73.699974"
       y2="108.61935" /><linearGradient
       inkscape:collect="always"
       xlink:href="#linearGradient1"
       id="linearGradient16"
       gradientUnits="userSpaceOnUse"
       gradientTransform="matrix(2.1059075,0,0,2.1059075,-58.516876,-122.00249)"
       x1="32.126011"
       y1="108.61935"
       x2="73.699974"
       y2="108.61935" /><linearGradient
       inkscape:collect="always"
       xlink:href="#linearGradient24"
       id="linearGradient20"
       gradientUnits="userSpaceOnUse"
       gradientTransform="matrix(0.85837866,0,0,2.2491642,7.9275889,-61.368429)"
       x1="3.3960769"
       y1="92.459846"
       x2="105.12612"
       y2="92.459846" /><linearGradient
       inkscape:collect="always"
       xlink:href="#linearGradient24"
       id="linearGradient21"
       gradientUnits="userSpaceOnUse"
       gradientTransform="matrix(0.85837866,0,0,2.2491642,7.9275889,-30.70625)"
       x1="2.9870336"
       y1="78.827148"
       x2="105.53517"
       y2="78.827148" /><linearGradient
       inkscape:collect="always"
       xlink:href="#linearGradient29"
       id="linearGradient22"
       gradientUnits="userSpaceOnUse"
       gradientTransform="matrix(0.85837866,0,0,2.2491642,7.9275879,1.716226)"
       x1="3.3960769"
       y1="92.459846"
       x2="105.12612"
       y2="92.459846" /><linearGradient
       inkscape:collect="always"
       xlink:href="#linearGradient26"
       id="linearGradient27"
       x1="10.343325"
       y1="192.51565"
       x2="97.806751"
       y2="192.51565"
       gradientUnits="userSpaceOnUse"
       gradientTransform="translate(0.42912882,17.157972)" /></defs><g
     inkscape:label="Ebene 1"
     inkscape:groupmode="layer"
     id="layer1"
     style="display:inline"
     sodipodi:insensitive="true"><rect
       style="fill:#ffffff;stroke-width:1.36314"
       id="rect1"
       width="109.00833"
       height="233.62708"
       x="0"
       y="0" /></g><g
     inkscape:groupmode="layer"
     id="layer2"
     inkscape:label="Ebene 2"><path
       id="path1"
       style="fill:url(#radialGradient2);stroke-width:2.72343"
       d="M -0.48466616,-0.99097852 V 17.173505 C 16.962041,22.995812 35.578923,26.039399 54.388705,26.144495 73.219837,26.04615 91.859002,23.002588 109.32558,17.173935 V -0.99097852 Z"
       sodipodi:nodetypes="cccccc" /><text
       xml:space="preserve"
       style="font-weight:bold;font-size:5.64444px;font-family:Poppins;-inkscape-font-specification:'Poppins Bold';opacity:0.36755;fill:#000000;fill-opacity:1;stroke:none;stroke-width:2.64583327;stroke-linecap:round;stroke-dasharray:none;stroke-opacity:1"
       x="48.387894"
       y="40.638268"
       id="text4"><tspan
         sodipodi:role="line"
         id="tspan4"
         style="stroke-width:2.64583327;stroke:none;stroke-dasharray:none;fill:#000000;fill-opacity:1"
         x="48.387894"
         y="40.638268" /></text><g
       id="g439"
       transform="translate(0,130.79852)" /><g
       id="g527"
       transform="translate(0,-36.725434)"><g
         id="g15"
         style="font-size:22.5298px;fill:url(#linearGradient16);stroke-width:3.84033"
         transform="matrix(0.50790547,0,0,0.50790547,27.545698,37.359487)"><path
           id="path4"
           style="fill:url(#linearGradient10);stroke-width:0.42817"
           d="m 52.91287,58.092928 c -9.234787,5.3e-5 -16.721021,7.486364 -16.720982,16.721144 5.3e-5,9.234737 7.486259,16.720925 16.720982,16.720987 9.234787,4.2e-5 16.721096,-7.486184 16.721149,-16.720987 4e-5,-9.234845 -7.486298,-16.721181 -16.721149,-16.721144 z m 2.417644,8.277863 h 1.67e-4 c 0.305685,6.59e-4 0.615912,0.03491 0.872394,0.09859 1.313862,0.326491 2.242925,1.187314 2.550614,2.400254 0.426988,1.683264 -0.396078,3.5061 -2.317965,5.528546 0.153606,0.0022 0.196996,0.0066 0.437367,0.0088 0.470314,0.0044 1.081999,0.0066 1.720701,0.0066 h 2.47669 l 0.175103,0.209272 c 0.0042,0.0044 0.0062,0.01098 0.01011,0.01537 0.01296,-0.132853 0.02174,-0.219812 0.03731,-0.378665 0.07576,-0.770066 0.180285,-1.825844 0.295198,-2.98112 0.229983,-2.311956 0.332873,-3.38618 0.412282,-3.914739 0.0397,-0.264257 0.03305,-0.387031 0.172446,-0.559455 0.0697,-0.0863 0.220413,-0.146468 0.297877,-0.149762 0.07746,-0.0044 0.09491,0.0022 0.09032,0.0022 0.06493,0 0.164014,-0.0044 0.2845,0.06258 0.12049,0.06763 0.192846,0.19434 0.225625,0.295857 0.06555,0.202904 0.07587,0.425987 0.112563,0.869235 0.03658,0.441974 0.269246,3.30146 0.517146,6.358626 0.149565,1.844465 0.183754,2.250491 0.25339,3.101214 0.05923,-0.38264 0.105272,-0.675598 0.170754,-1.102376 0.247429,-1.612641 0.387361,-2.514814 0.474663,-3.028616 0.04366,-0.256902 0.07385,-0.415579 0.100531,-0.527177 0.02666,-0.111552 0.03391,-0.189727 0.134632,-0.297042 0.201169,-0.214103 0.590179,-0.218714 0.792113,0 0.09208,0.0997 0.08586,0.131097 0.110566,0.192582 0.02472,0.06149 0.05022,0.135269 0.08028,0.22763 0.06017,0.184678 0.136454,0.441908 0.231309,0.78008 l 0.212412,0.756649 h 1.215098 1.784424 v 0.575178 0.577199 l -1.927427,-0.01098 c -0.776185,-0.0044 -1.173942,-0.0066 -1.403926,-0.01757 -0.115,-0.0044 -0.187312,-0.0088 -0.269942,-0.0303 -0.08264,-0.01976 -0.194185,-0.09838 -0.22429,-0.130219 -0.01384,-0.01537 -0.0059,-0.01318 -0.01515,-0.0246 -9.7e-4,0.0044 -0.0013,0.0066 -0.002,0.01098 -0.117657,0.745341 -0.277019,1.770266 -0.44941,2.894491 -0.190694,1.243639 -0.351901,2.274317 -0.469647,3.000861 -0.05887,0.363271 -0.106809,0.650279 -0.142164,0.851491 -0.01757,0.100572 -0.03263,0.179626 -0.04432,0.23817 -0.0059,0.02921 -0.01054,0.05358 -0.01581,0.07597 -0.0026,0.01098 -0.0057,0.02196 -0.01011,0.03602 -0.0044,0.01537 0.004,0.01757 -0.03864,0.08674 -0.22714,0.363051 -0.822782,0.337293 -0.982779,-0.07466 -0.03524,-0.09069 -0.01823,-0.06874 -0.0202,-0.08103 -0.002,-0.01318 -0.0033,-0.02327 -0.005,-0.03667 -0.0033,-0.02657 -0.007,-0.06082 -0.01142,-0.103649 -0.0088,-0.08564 -0.01998,-0.206197 -0.03413,-0.359604 -0.02808,-0.306881 -0.06618,-0.743891 -0.111904,-1.278818 -0.09144,-1.069833 -0.212939,-2.531988 -0.342033,-4.129808 -0.133797,-1.65599 -0.163311,-1.997632 -0.237,-2.900178 -0.09948,1.016713 -0.178352,1.798198 -0.233983,2.304754 -0.02903,0.264191 -0.052,0.462549 -0.07075,0.601771 -0.0095,0.06961 -0.01801,0.123411 -0.02593,0.167987 -0.004,0.02218 -0.007,0.04194 -0.01251,0.0639 -0.0055,0.02196 0.0062,0.0303 -0.04682,0.115067 -0.161707,0.258547 -0.483406,0.331233 -0.742773,0.180065 -0.132875,-0.07752 -0.122554,-0.106941 -0.157382,-0.154153 -0.03483,-0.04743 -0.0713,-0.102335 -0.113221,-0.169525 -0.08386,-0.133952 -0.187884,-0.313557 -0.307744,-0.531041 -0.179802,-0.326227 -0.270769,-0.48486 -0.311762,-0.544918 -0.0042,-2.42e-4 6.48e-4,1.31e-4 -0.0033,0 -0.04194,-0.0013 -0.102877,-0.0022 -0.178967,-0.0044 -0.152177,-0.0022 -0.366006,-0.0066 -0.624525,-0.0088 -0.517034,-0.0044 -1.213873,-0.0066 -1.964056,-0.0066 l -2.864214,-0.0022 -0.176947,-0.176332 c -0.07202,-0.07202 -0.138321,-0.164696 -0.164409,-0.287008 -0.02609,-0.122313 0.0055,-0.263445 0.06775,-0.361602 0.04926,-0.07774 0.03924,-0.05248 0.05301,-0.06763 0.01384,-0.01537 0.03024,-0.03294 0.05051,-0.05446 0.0406,-0.04305 0.09607,-0.100792 0.162564,-0.169306 0.133007,-0.137465 0.311486,-0.319507 0.504435,-0.514482 0.773501,-0.78164 1.128553,-1.200446 1.519664,-1.786428 0.415802,-0.622962 0.636596,-1.087641 0.78442,-1.636578 0.05606,-0.208174 0.0636,-0.290126 0.06456,-0.694768 v -6.81e-4 c 0.0013,-0.564924 -0.01581,-0.64839 -0.224454,-1.075256 -0.148247,-0.303323 -0.561689,-0.724567 -0.867377,-0.881267 -0.398371,-0.204222 -0.689067,-0.278927 -1.169937,-0.297702 -0.511009,-0.01976 -0.709466,0.01976 -1.05955,0.198511 -0.366053,0.187752 -0.649486,0.476625 -1.009541,1.075958 -0.151761,0.25262 -0.497241,0.359715 -0.759831,0.187533 -0.124729,-0.08169 -0.129121,-0.119678 -0.176949,-0.1838 -0.04783,-0.06412 -0.09759,-0.138343 -0.143503,-0.216298 -0.154109,-0.261315 -0.623231,-0.710974 -0.821211,-0.813019 -0.417525,-0.2152 -0.536464,-0.241067 -1.102369,-0.239509 -0.579287,0.0016 -0.668587,0.01976 -1.085977,0.219923 -0.569883,0.273743 -0.957431,0.76989 -1.138491,1.50144 -0.06127,0.247612 -0.06241,0.276928 -0.04815,0.678891 0.01932,0.543777 0.0775,0.763699 0.356583,1.340019 0.399056,0.824064 0.860044,1.420389 1.983123,2.545097 0.445109,0.44575 0.667001,0.659678 0.803319,0.855839 0.06816,0.09815 0.137992,0.233053 0.10872,0.395223 -0.02929,0.162059 -0.120819,0.236391 -0.165572,0.281144 l -0.176289,0.176552 h -2.787778 -2.471001 l -0.199874,0.329982 c -0.283542,0.46896 -0.434301,0.719977 -0.574516,0.888778 -0.07012,0.08433 -0.145152,0.163376 -0.272456,0.208612 -0.127297,0.04523 -0.26483,0.01537 -0.332498,-0.0088 -0.01296,-0.0044 -0.05522,-0.01537 -0.118909,-0.05556 -0.06368,-0.04041 -0.127122,-0.11309 -0.161224,-0.179627 -0.06821,-0.133073 -0.08445,-0.252049 -0.114914,-0.470806 -0.05522,-0.396804 -0.134499,-1.293839 -0.261752,-2.698636 -0.07212,0.865611 -0.137332,1.634821 -0.222444,2.680234 -0.245735,3.018648 -0.372965,4.57558 -0.44824,5.392749 -0.03764,0.408573 -0.06126,0.63034 -0.08347,0.771208 -0.0112,0.07049 -0.02064,0.120776 -0.03981,0.177211 -0.0191,0.05622 -0.0419,0.130877 -0.09618,0.163158 -0.22354,0.132633 -0.537621,0.121433 -0.779398,0.02591 -0.03052,-0.01098 -0.04839,-0.04656 -0.06957,-0.06961 -0.01054,-0.01098 -0.02065,-0.0224 -0.03412,-0.03975 -0.0068,-0.0088 -0.01406,-0.01757 -0.02593,-0.03864 -0.0059,-0.01098 -0.01362,-0.0224 -0.02275,-0.0448 -0.0046,-0.01098 -0.009,-0.02504 -0.01384,-0.04436 -0.0048,-0.01976 -0.01011,-0.07949 -0.01011,-0.07949 0,-4.4e-5 0.0022,0.03777 0.0026,0.03975 -6.48e-4,-0.0022 -0.0017,-0.0088 -0.0026,-0.01537 -0.0022,-0.01537 -0.0053,-0.03602 -0.0095,-0.06456 -0.0083,-0.05687 -0.0213,-0.140758 -0.03729,-0.248359 -0.03221,-0.215201 -0.07851,-0.525507 -0.135972,-0.908366 -0.114956,-0.765696 -0.273647,-1.820595 -0.448071,-2.979274 -0.174445,-1.158834 -0.332575,-2.21639 -0.447569,-2.986984 -0.0017,-0.0088 -0.0017,-0.01318 -0.0033,-0.02327 -0.01668,0.02394 -0.0073,0.03799 -0.03529,0.06829 l -0.165572,0.178748 H 38.668792 36.56508 V 74.9214 74.346727 h 1.969744 1.399405 l 0.211906,-0.770528 c 0.07659,-0.278443 0.150289,-0.539736 0.20723,-0.737763 0.02848,-0.09904 0.05254,-0.182263 0.07141,-0.244693 0.0095,-0.03118 0.01779,-0.05731 0.02477,-0.07883 0.007,-0.02196 0.005,-0.0246 0.02593,-0.07027 0.09456,-0.207515 0.320397,-0.317157 0.514475,-0.306573 0.194075,0.01098 0.384952,0.123192 0.483693,0.315445 0.03298,0.06412 0.02519,0.06302 0.02846,0.07532 0.0033,0.01317 0.0053,0.02196 0.0075,0.03228 0.0044,0.02196 0.0085,0.04414 0.01384,0.07335 0.01076,0.0582 0.02508,0.137025 0.04181,0.236501 0.03344,0.19917 0.07818,0.479458 0.132129,0.821715 0.10793,0.684534 0.250732,1.616462 0.402579,2.631067 0.06309,0.42153 0.106678,0.705441 0.163749,1.083974 0.08143,-0.992843 0.147962,-1.798637 0.32748,-4.031145 0.167154,-2.078925 0.300412,-3.701932 0.395724,-4.812388 0.04765,-0.555217 0.08572,-0.981864 0.113727,-1.274975 0.01406,-0.146468 0.02567,-0.25958 0.03479,-0.340192 0.0046,-0.04019 0.0088,-0.07202 0.01273,-0.09926 0.002,-0.01318 0.0033,-0.02569 0.0062,-0.04041 0.0028,-0.01537 -0.01318,-0.0066 0.03226,-0.09618 0.216584,-0.426492 0.887523,-0.374339 1.02978,0.08411 0.02152,0.06918 0.01186,0.05402 0.01384,0.06697 0.002,0.01317 0.0038,0.02701 0.0057,0.0437 0.004,0.03338 0.0092,0.07795 0.01515,0.13461 0.01208,0.113529 0.02796,0.275281 0.048,0.480337 0.04009,0.410132 0.09587,0.993677 0.162563,1.708669 0.131624,1.410969 0.307704,3.343886 0.496241,5.441411 0.01186,-0.01757 0.02528,-0.03711 0.03597,-0.05182 0.02262,-0.03118 0.0077,-0.03557 0.09416,-0.107379 0.07218,-0.05995 0.105295,-0.06061 0.132129,-0.06829 0.02683,-0.0066 0.04633,-0.01098 0.06572,-0.01318 0.03876,-0.0066 0.07655,-0.0088 0.124596,-0.01318 0.09612,-0.0066 0.229186,-0.01098 0.419139,-0.01537 0.379893,-0.0088 0.984386,-0.01318 1.917893,-0.01537 l 1.652294,-0.0066 c -1.416305,-1.464877 -2.193867,-2.694485 -2.40025,-3.949675 -0.147105,-0.894641 0.05522,-1.86873 0.547584,-2.609328 0.229924,-0.345858 0.62899,-0.736491 0.976594,-0.947651 0.857903,-0.521158 1.979668,-0.639694 2.963394,-0.323635 0.546773,0.175674 1.041884,0.521444 1.416634,0.961529 0.392202,-0.480995 0.963977,-0.862185 1.579042,-1.039308 0.24052,-0.06918 0.542125,-0.101887 0.847804,-0.10123 z"
           sodipodi:nodetypes="ccccccscscscccccsssccsssscsssssccccccccccscccsssccsccsscssscscssccssscccccccscscsssssssssssssssccscsssscccccssscsccsscsaaccscsscccssscccccccccccccscscccccsscsscscsccscscscssssscccsssscscc" /><path
           style="font-family:Poppins;-inkscape-font-specification:Poppins;fill:#000000;stroke-width:4.00448"
           d="m 7.266379,105.43331 c 0,4.91 3.594403,8.33995 8.175503,8.33995 3.547416,0 6.366556,-1.76196 7.588182,-4.91 h -2.560717 c -0.892727,1.9499 -2.631197,3.05407 -5.027465,3.05407 -3.429952,0 -5.9906698,-2.49025 -5.9906698,-6.48402 0,-4.01728 2.5607178,-6.507515 5.9906698,-6.507515 2.396268,0 4.134738,1.104165 5.027465,3.077565 h 2.560717 c -1.221626,-3.171536 -4.040766,-4.956991 -7.588182,-4.956991 -4.5811,0 -8.175503,3.476941 -8.175503,8.386941 z m 18.136446,1.71497 c 0,3.99379 2.65469,6.69546 6.084641,6.69546 2.372776,0 4.040766,-1.22162 4.81603,-2.6077 v 2.39627 h 2.161339 v -12.87407 h -2.161339 v 2.34928 c -0.751771,-1.33909 -2.396268,-2.56072 -4.792537,-2.56072 -3.453444,0 -6.108134,2.58421 -6.108134,6.60148 z m 10.900671,0.0235 c 0,3.03058 -2.020383,4.79254 -4.369665,4.79254 -2.349283,0 -4.346173,-1.78545 -4.346173,-4.81603 0,-3.03057 1.99689,-4.74555 4.346173,-4.74555 2.349282,0 4.369665,1.78546 4.369665,4.76904 z m 5.779248,-10.924158 v 17.384698 h 2.137847 V 96.247614 Z m 11.394029,17.596128 c 3.664881,0 6.601484,-2.58421 6.601484,-6.67197 0,-4.06425 -2.842632,-6.62497 -6.507513,-6.62497 -3.641388,0 -6.507513,2.56072 -6.507513,6.62497 0,4.08776 2.772154,6.67197 6.413542,6.67197 z m 0,-1.87943 c -2.231818,0 -4.228709,-1.52704 -4.228709,-4.79254 0,-3.242 2.043876,-4.76904 4.299187,-4.76904 2.208325,0 4.346172,1.52704 4.346172,4.76904 0,3.2655 -2.184832,4.79254 -4.41665,4.79254 z m 11.558456,-5.33287 c 0,-2.98359 1.550527,-3.89981 3.594403,-3.89981 h 0.563827 v -2.20832 c -2.043876,0 -3.429952,0.89272 -4.15823,2.32579 v -2.09086 h -2.137847 v 12.87407 h 2.137847 z"
           id="path14" /><path
           style="font-weight:600;font-family:Poppins;-inkscape-font-specification:'Poppins Semi-Bold';fill:url(#linearGradient15);stroke-width:4.00448"
           d="m 71.472242,100.61728 v 13.01503 h 3.288995 v -13.01503 z m 1.667991,-1.550528 c 1.151148,0 2.020382,-0.845741 2.020382,-1.926412 0,-1.08067 -0.869234,-1.926411 -2.020382,-1.926411 -1.174642,0 -2.020383,0.845741 -2.020383,1.926411 0,1.080671 0.845741,1.926412 2.020383,1.926412 z m 5.215405,0.892727 v 0.657801 h -1.480049 v 2.70167 h 1.480049 v 10.31336 h 3.33598 v -10.31336 h 2.278805 v -2.70167 h -2.278805 v -0.54034 c 0,-1.456551 0.540336,-1.973394 2.137848,-1.926407 v -2.772154 c -3.664881,-0.09397 -5.473828,1.386076 -5.473828,4.5811 z m 16.703383,0.657801 -3.40646,9.09172 -3.359474,-9.09172 h -3.688374 l 5.215407,12.68612 -2.819139,6.48402 h 3.500431 l 8.058039,-19.17014 z"
           id="path15" /></g><rect
         style="fill:url(#linearGradient5);stroke:url(#linearGradient3);stroke-width:0.367632;stroke-linecap:round;stroke-dasharray:none;stroke-opacity:1"
         id="rect3"
         width="87.095795"
         height="18.767195"
         x="10.956269"
         y="169.015"
         ry="9.3835974" /><text
         xml:space="preserve"
         style="font-weight:bold;font-size:10.3053px;font-family:Poppins;-inkscape-font-specification:'Poppins Bold';text-align:start;text-anchor:start;fill:#ffffff;stroke:none;stroke-width:3.46399;stroke-linecap:round;stroke-dasharray:none;stroke-opacity:1"
         x="24.845476"
         y="182.27341"
         id="text3"><tspan
           sodipodi:role="line"
           id="tspan3"
           style="font-style:normal;font-variant:normal;font-weight:normal;font-stretch:normal;font-size:10.3053px;font-family:Poppins;-inkscape-font-specification:Poppins;text-align:start;text-anchor:start;fill:#ffffff;fill-opacity:1;stroke-width:3.46399"
           x="24.845476"
           y="182.27341">Gesundheit</tspan></text><text
         xml:space="preserve"
         style="font-weight:bold;font-size:8.23716px;font-family:Poppins;-inkscape-font-specification:'Poppins Bold';text-align:start;text-anchor:start;fill:#000000;stroke:none;stroke-width:2.76881;stroke-linecap:round;stroke-dasharray:none;stroke-opacity:1"
         x="4.714654"
         y="115.55747"
         id="text18"><tspan
           sodipodi:role="line"
           id="tspan18"
           style="font-style:normal;font-variant:normal;font-weight:normal;font-stretch:normal;font-size:8.23716px;font-family:Poppins;-inkscape-font-specification:Poppins;text-align:start;text-anchor:start;fill:#000000;fill-opacity:1;stroke-width:2.76881"
           x="4.714654"
           y="115.55747">Worauf liegt dein Fokus?</tspan></text><rect
         style="fill:url(#linearGradient20);stroke:url(#linearGradient21);stroke-width:0.367632;stroke-linecap:round;stroke-dasharray:none;stroke-opacity:1"
         id="rect19"
         width="87.095795"
         height="18.767195"
         x="10.95627"
         y="137.20535"
         ry="9.3835974" /><text
         xml:space="preserve"
         style="font-weight:bold;font-size:10.3053px;font-family:Poppins;-inkscape-font-specification:'Poppins Bold';text-align:start;text-anchor:start;fill:#ffffff;stroke:none;stroke-width:3.46399;stroke-linecap:round;stroke-dasharray:none;stroke-opacity:1"
         x="36.758415"
         y="150.46378"
         id="text19"><tspan
           sodipodi:role="line"
           id="tspan19"
           style="font-style:normal;font-variant:normal;font-weight:normal;font-stretch:normal;font-size:10.3053px;font-family:Poppins;-inkscape-font-specification:Poppins;text-align:start;text-anchor:start;fill:#ffffff;fill-opacity:1;stroke-width:3.46399"
           x="36.758415"
           y="150.46378">Fitness</tspan></text><rect
         style="fill:url(#linearGradient22);stroke:url(#linearGradient27);stroke-width:0.367632;stroke-linecap:round;stroke-dasharray:none;stroke-opacity:1"
         id="rect21"
         width="87.095795"
         height="18.767195"
         x="10.956269"
         y="200.29002"
         ry="9.3835974" /><text
         xml:space="preserve"
         style="font-weight:bold;font-size:10.3053px;font-family:Poppins;-inkscape-font-specification:'Poppins Bold';text-align:start;text-anchor:start;fill:#ffffff;stroke:none;stroke-width:3.46399;stroke-linecap:round;stroke-dasharray:none;stroke-opacity:1"
         x="26.159389"
         y="213.44022"
         id="text21"><tspan
           sodipodi:role="line"
           id="tspan21"
           style="font-style:normal;font-variant:normal;font-weight:normal;font-stretch:normal;font-size:10.3053px;font-family:Poppins;-inkscape-font-specification:Poppins;text-align:start;text-anchor:start;fill:#ffffff;fill-opacity:1;stroke-width:3.46399"
           x="26.159389"
           y="213.44022">Abnehmen</tspan></text><text
         xml:space="preserve"
         style="font-size:3.42698px;font-family:Poppins;-inkscape-font-specification:Poppins;text-align:center;text-anchor:middle;fill:#000000;stroke:#ffffff;stroke-width:0.16064;stroke-linecap:round"
         x="54.495598"
         y="251.71211"
         id="text13"><tspan
           sodipodi:role="line"
           id="tspan13"
           style="text-align:center;text-anchor:middle;stroke-width:0.16064"
           x="54.495598"
           y="251.71211">Calorify</tspan><tspan
           sodipodi:role="line"
           style="text-align:center;text-anchor:middle;stroke-width:0.16064"
           x="54.495598"
           y="255.99583"
           id="tspan14">by Ahmad, Jonas und Jonathan</tspan></text><text
         xml:space="preserve"
         style="font-weight:bold;font-size:5.42473px;font-family:Poppins;-inkscape-font-specification:'Poppins Bold';fill:#1a1a1a;fill-opacity:1;stroke:none;stroke-width:1.18427;stroke-linecap:round;stroke-dasharray:none;stroke-opacity:1"
         x="3.1215138"
         y="80.272408"
         id="text5-7-7"><tspan
           sodipodi:role="line"
           id="tspan5-6-6"
           style="font-style:normal;font-variant:normal;font-weight:500;font-stretch:normal;font-size:5.42473px;font-family:Poppins;-inkscape-font-specification:'Poppins Medium';fill:#1a1a1a;fill-opacity:1;stroke-width:1.18427"
           x="3.1215138"
           y="80.272408" /></text></g></g></svg>
