<?xml version="1.0" encoding="UTF-8" standalone="no"?>
<!-- Created with Inkscape (http://www.inkscape.org/) -->

<svg
   width="1080"
   height="1080"
   viewBox="0 0 285.74999 285.75"
   version="1.1"
   id="svg1"
   inkscape:version="1.3.2 (091e20ef0f, 2023-11-25, custom)"
   sodipodi:docname="logo-favicon.svg"
   xml:space="preserve"
   inkscape:export-filename="logo-favicon.png"
   inkscape:export-xdpi="96"
   inkscape:export-ydpi="96"
   xmlns:inkscape="http://www.inkscape.org/namespaces/inkscape"
   xmlns:sodipodi="http://sodipodi.sourceforge.net/DTD/sodipodi-0.dtd"
   xmlns:xlink="http://www.w3.org/1999/xlink"
   xmlns="http://www.w3.org/2000/svg"
   xmlns:svg="http://www.w3.org/2000/svg"><sodipodi:namedview
     id="namedview1"
     pagecolor="#505050"
     bordercolor="#ffffff"
     borderopacity="1"
     inkscape:showpageshadow="0"
     inkscape:pageopacity="0"
     inkscape:pagecheckerboard="1"
     inkscape:deskcolor="#505050"
     inkscape:document-units="mm"
     showguides="true"
     inkscape:zoom="0.56372123"
     inkscape:cx="498.47333"
     inkscape:cy="491.37763"
     inkscape:window-width="1920"
     inkscape:window-height="1060"
     inkscape:window-x="1920"
     inkscape:window-y="20"
     inkscape:window-maximized="1"
     inkscape:current-layer="g26"
     showgrid="false" /><defs
     id="defs1"><linearGradient
       inkscape:collect="always"
       xlink:href="#linearGradient1"
       id="linearGradient10"
       x1="45.298378"
       y1="93.7342"
       x2="60.527569"
       y2="93.7342"
       gradientUnits="userSpaceOnUse"
       gradientTransform="matrix(6.3161422,0,0,6.3161422,-183.69615,-501.15205)" /><linearGradient
       id="linearGradient1"
       inkscape:collect="always"><stop
         style="stop-color:#4caf50;stop-opacity:1;"
         offset="0"
         id="stop1" /><stop
         style="stop-color:#5faf50;stop-opacity:1;"
         offset="1"
         id="stop2" /></linearGradient><linearGradient
       inkscape:collect="always"
       xlink:href="#linearGradient1"
       id="linearGradient12"
       x1="32.126011"
       y1="108.61935"
       x2="73.699974"
       y2="108.61935"
       gradientUnits="userSpaceOnUse"
       gradientTransform="matrix(6.3161422,0,0,6.3161422,-183.69615,-501.15205)" /></defs><g
     inkscape:label="Ebene 1"
     inkscape:groupmode="layer"
     id="layer1"><g
       id="g26"
       transform="translate(-3.5567475,10.302272)"><circle
         style="fill:#ffffff;stroke-width:1.10922;stroke-linecap:round"
         id="path1"
         cx="146.43175"
         cy="132.57272"
         r="152.53918" /><g
         id="g1"
         transform="translate(-4.0783204,1.0550768)"><path
           id="path4-6"
           style="fill:url(#linearGradient10);fill-opacity:1;stroke-width:1.23155"
           d="m 150.50943,42.791582 c -26.56202,1.89e-4 -48.0947,21.533055 -48.09457,48.095086 1.3e-4,26.561912 21.53274,48.094462 48.09457,48.094652 26.5621,1.2e-4 48.09496,-21.53256 48.09515,-48.094652 7e-5,-26.56222 -21.53286,-48.095212 -48.09515,-48.095086 z m 6.95389,23.809646 h 5.1e-4 c 0.87927,0.0019 1.77155,0.100426 2.50927,0.283595 3.77907,0.939083 6.45131,3.415074 7.33633,6.903859 1.22817,4.841576 -1.13925,10.084605 -6.6672,15.901772 0.44214,0.0064 0.56657,0.01895 1.25805,0.02526 1.35273,0.01263 3.11216,0.01895 4.94927,0.01895 h 7.12366 l 0.5034,0.601929 c 0.0126,0.01263 0.019,0.03158 0.0316,0.04421 0.0379,-0.382127 0.0632,-0.632246 0.10737,-1.089156 0.21791,-2.214945 0.51856,-5.251682 0.84909,-8.574605 0.66155,-6.649887 0.95746,-9.73968 1.18585,-11.259976 0.11433,-0.760084 0.0948,-1.11322 0.49582,-1.609163 0.20022,-0.248225 0.63401,-0.421287 0.85678,-0.430761 0.22296,-0.01263 0.27286,0.0064 0.2596,0.0064 0.18695,0 0.47181,-0.01263 0.81831,0.18001 0.34676,0.194538 0.55457,0.558979 0.64899,0.850974 0.18885,0.583612 0.21853,1.225269 0.32402,2.500182 0.10547,1.27125 0.77442,9.496004 1.48745,18.289338 0.43013,5.305243 0.52866,6.473098 0.72882,8.920034 0.17054,-1.100587 0.30255,-1.943224 0.4914,-3.170767 0.7117,-4.638448 1.11416,-7.233372 1.3653,-8.711223 0.12568,-0.738925 0.21222,-1.195329 0.28927,-1.516316 0.0764,-0.32086 0.0973,-0.545715 0.38718,-0.854384 0.57856,-0.615824 1.69753,-0.629089 2.27836,0 0.26464,0.286752 0.24696,0.377074 0.3177,0.553925 0.0714,0.176852 0.14465,0.389075 0.23118,0.654732 0.17306,0.531187 0.39223,1.27106 0.66527,2.243746 l 0.61077,2.176353 h 3.49504 5.1325 v 1.654387 1.660199 l -5.54381,-0.03158 c -2.23256,-0.01263 -3.37667,-0.01895 -4.03816,-0.05053 -0.33097,-0.01263 -0.53876,-0.02526 -0.77644,-0.08717 -0.23749,-0.05684 -0.55835,-0.282963 -0.64513,-0.374547 -0.0379,-0.04422 -0.019,-0.0379 -0.0442,-0.07074 -0.003,0.01263 -0.004,0.01895 -0.005,0.03158 -0.33855,2.143825 -0.79678,5.091821 -1.29266,8.325435 -0.54825,3.57708 -1.01217,6.54163 -1.35083,8.63139 -0.16928,1.04487 -0.30697,1.87039 -0.40866,2.44914 -0.0505,0.28928 -0.0941,0.51666 -0.12759,0.68505 -0.019,0.084 -0.0316,0.15412 -0.0443,0.21854 -0.006,0.0316 -0.019,0.0632 -0.0315,0.10358 -0.0126,0.0442 0.0126,0.0505 -0.11116,0.24949 -0.65335,1.04426 -2.36654,0.97017 -2.8268,-0.21475 -0.10168,-0.26085 -0.0505,-0.19769 -0.0569,-0.23306 -0.005,-0.0379 -0.0126,-0.0669 -0.0126,-0.10548 -0.0126,-0.0764 -0.019,-0.17496 -0.0316,-0.29812 -0.0253,-0.24633 -0.0569,-0.59309 -0.0979,-1.03434 -0.0809,-0.88268 -0.19012,-2.13965 -0.32213,-3.67826 -0.26275,-3.07717 -0.61267,-7.28277 -0.98374,-11.878582 -0.38465,-4.76313 -0.46992,-5.745795 -0.6817,-8.341792 -0.28612,2.924373 -0.51287,5.172162 -0.67305,6.62917 -0.0834,0.759895 -0.14969,1.330432 -0.20338,1.730875 -0.0253,0.200222 -0.0505,0.354967 -0.0745,0.483185 -0.0126,0.0638 -0.019,0.120639 -0.0379,0.1838 -0.0126,0.06316 0.019,0.08717 -0.13453,0.330966 -0.46487,0.743662 -1.39037,0.952727 -2.13644,0.517923 -0.38212,-0.222959 -0.35244,-0.307595 -0.45286,-0.443393 -0.10043,-0.136428 -0.20527,-0.294332 -0.32591,-0.487606 -0.24128,-0.385285 -0.54066,-0.901882 -0.88515,-1.527433 -0.51729,-0.938326 -0.77878,-1.394604 -0.89671,-1.56735 -0.0126,-6.95e-4 0.002,3.78e-4 -0.006,0 -0.12063,-0.0038 -0.29622,-0.0064 -0.51476,-0.01263 -0.43771,-0.0064 -1.05277,-0.01895 -1.79631,-0.02526 -1.4872,-0.01263 -3.4915,-0.01895 -5.64922,-0.01895 l -8.2384,-0.0064 -0.50908,-0.507186 c -0.20717,-0.20717 -0.39792,-0.47371 -0.47308,-0.82552 -0.0752,-0.351809 0.0126,-0.757747 0.19454,-1.040079 0.14149,-0.223592 0.11306,-0.150956 0.15222,-0.194537 0.0379,-0.04421 0.0872,-0.09474 0.14527,-0.156641 0.11685,-0.123795 0.27602,-0.28991 0.4674,-0.486974 0.38275,-0.39539 0.89594,-0.918999 1.45094,-1.479809 2.2248,-2.248231 3.24605,-3.452846 4.37102,-5.138308 1.19597,-1.791826 1.83106,-3.128386 2.25619,-4.707295 0.16106,-0.598769 0.18317,-0.834488 0.1857,-1.998364 v -0.002 c 0.004,-1.62489 -0.0443,-1.864966 -0.64558,-3.092761 -0.42634,-0.872449 -1.6156,-2.084075 -2.49481,-2.534795 -1.14588,-0.5874 -1.98201,-0.802276 -3.36512,-0.856279 -1.46982,-0.05685 -2.04061,0.05684 -3.04759,0.57098 -1.05291,0.540029 -1.86813,1.370918 -2.90373,3.094783 -0.43644,0.726609 -1.43022,1.034647 -2.18551,0.539398 -0.35875,-0.234961 -0.37139,-0.344229 -0.50908,-0.528661 -0.13769,-0.184431 -0.28044,-0.397917 -0.41245,-0.62214 -0.44339,-0.75162 -1.79264,-2.044978 -2.36204,-2.338488 -1.20095,-0.618982 -1.54303,-0.693387 -3.17077,-0.688902 -1.66619,0.0047 -1.92308,0.05684 -3.12358,0.632561 -1.63916,0.787371 -2.7539,2.21444 -3.27467,4.3186 -0.17622,0.712208 -0.17938,0.796529 -0.13832,1.952698 0.0569,1.564066 0.22295,2.196628 1.02561,3.8543 1.14784,2.370258 2.47378,4.08547 5.70411,7.320472 1.28022,1.282113 1.91846,1.897432 2.31057,2.461653 0.19581,0.282331 0.39665,0.670332 0.31265,1.13678 -0.084,0.46613 -0.34739,0.679932 -0.47624,0.808655 l -0.50718,0.507818 h -8.01847 -7.10737 l -0.57477,0.949126 c -0.81553,1.348876 -1.24921,2.070874 -1.65249,2.556396 -0.20148,0.24254 -0.41749,0.469921 -0.78364,0.600034 -0.36634,0.130112 -0.76179,0.04421 -0.95639,-0.02526 -0.0379,-0.01263 -0.15854,-0.04421 -0.3417,-0.159798 -0.18318,-0.116218 -0.36571,-0.325281 -0.46361,-0.516661 -0.19643,-0.382757 -0.24317,-0.724966 -0.33033,-1.354181 -0.15854,-1.141327 -0.38718,-3.721471 -0.75289,-7.762096 -0.20716,2.48976 -0.39476,4.702241 -0.63982,7.709167 -0.70678,8.682551 -1.07274,13.160751 -1.28925,15.511181 -0.10801,1.17518 -0.17622,1.81305 -0.24002,2.21823 -0.0316,0.20275 -0.0569,0.34739 -0.11432,0.50971 -0.0569,0.16169 -0.12063,0.37644 -0.27665,0.46929 -0.64298,0.3815 -1.54637,0.34928 -2.24178,0.0745 -0.0878,-0.0316 -0.13896,-0.13391 -0.20022,-0.20022 -0.0316,-0.0316 -0.0569,-0.0644 -0.0979,-0.11433 -0.0189,-0.0253 -0.0379,-0.0505 -0.0745,-0.11116 -0.019,-0.0316 -0.0379,-0.0644 -0.0657,-0.12885 -0.0126,-0.0316 -0.0253,-0.072 -0.0379,-0.12759 -0.0126,-0.0568 -0.0316,-0.22864 -0.0316,-0.22864 0,-1.3e-4 0.006,0.10864 0.006,0.11432 -0.002,-0.006 -0.004,-0.0253 -0.006,-0.0442 -0.006,-0.0442 -0.0126,-0.10358 -0.0253,-0.18569 -0.0253,-0.16359 -0.0631,-0.40487 -0.10738,-0.71436 -0.0928,-0.61898 -0.22611,-1.51151 -0.39097,-2.61273 -0.33032,-2.20238 -0.78711,-5.23659 -1.2888,-8.5693 -0.5015,-3.333156 -0.95658,-6.375011 -1.28736,-8.591471 -0.004,-0.02526 -0.004,-0.0379 -0.0126,-0.06695 -0.0505,0.06885 -0.019,0.10927 -0.10169,0.196432 l -0.47623,0.514134 h -5.52783 -6.05093 v -1.65042 -1.652934 h 5.66558 4.02515 l 0.60951,-2.216272 c 0.22044,-0.800886 0.43203,-1.552444 0.59625,-2.122033 0.0821,-0.284859 0.15095,-0.524241 0.20527,-0.703809 0.0253,-0.08969 0.0505,-0.164851 0.0714,-0.226749 0.019,-0.06316 0.0126,-0.07074 0.0745,-0.202116 0.27223,-0.596876 0.92152,-0.912241 1.47975,-0.881797 0.55834,0.03158 1.10728,0.354335 1.39125,0.907314 0.0947,0.184431 0.0726,0.181273 0.0821,0.216643 0.0126,0.0379 0.0126,0.06316 0.019,0.09285 0.0126,0.06316 0.0253,0.126954 0.0379,0.210959 0.0316,0.167377 0.072,0.394127 0.12001,0.680248 0.096,0.572875 0.22485,1.379067 0.38023,2.363501 0.31012,1.96893 0.72117,4.649438 1.15793,7.567749 0.18128,1.212446 0.30697,2.029061 0.47119,3.117837 0.23433,-2.855718 0.42571,-5.173425 0.94193,-11.594795 0.48066,-5.979618 0.86411,-10.647879 1.13823,-13.841888 0.13706,-1.596974 0.24633,-2.824137 0.32718,-3.667216 0.0379,-0.421287 0.0739,-0.746631 0.0998,-0.978497 0.0126,-0.115585 0.0253,-0.207169 0.0379,-0.285489 0.005,-0.0379 0.006,-0.0739 0.019,-0.116217 0.006,-0.04422 -0.0379,-0.01895 0.0928,-0.276647 0.62277,-1.226721 2.55279,-1.076713 2.96195,0.241908 0.0632,0.198958 0.0316,0.155377 0.0379,0.192642 0.005,0.0379 0.0126,0.07769 0.019,0.125691 0.0126,0.09601 0.0253,0.224224 0.0442,0.38718 0.0316,0.326545 0.0803,0.791792 0.13832,1.381593 0.11559,1.179666 0.27602,2.858118 0.46739,4.914653 0.37833,4.058374 0.88508,9.618032 1.42739,15.651148 0.0316,-0.05053 0.0726,-0.106743 0.10358,-0.149061 0.065,-0.08969 0.019,-0.102321 0.27096,-0.308859 0.20781,-0.172431 0.30255,-0.174326 0.38024,-0.196433 0.077,-0.01895 0.13327,-0.03158 0.18885,-0.0379 0.11179,-0.01895 0.22043,-0.02526 0.35876,-0.0379 0.27664,-0.01895 0.65915,-0.03159 1.20556,-0.04422 1.09262,-0.02526 2.83133,-0.0379 5.51638,-0.04421 l 4.75253,-0.01895 c -4.07372,-4.213436 -6.31021,-7.750159 -6.90386,-11.360466 -0.42318,-2.573259 0.15853,-5.375037 1.57505,-7.505219 0.6613,-0.994793 1.80914,-2.11837 2.80898,-2.725731 2.4676,-1.49901 5.69413,-1.839956 8.52357,-0.930873 1.57273,0.505291 2.99682,1.499831 4.07467,2.765649 1.12813,-1.383488 2.77272,-2.479906 4.54181,-2.989367 0.69181,-0.198958 1.55933,-0.293069 2.43854,-0.291174 z"
           sodipodi:nodetypes="ccccccscscscccccsssccsssscsssssccccccccccscccsssccsccsscssscscssccssscccccccscscsssssssssssssssccscsssscccccssscsccsscsaaccscsscccssscccccccccccccscscccccsscsscscsccscscscssssscccsssscscc" /><text
           xml:space="preserve"
           style="font-size:67.5727px;fill:url(#linearGradient12);stroke-width:11.5181"
           x="16.310755"
           y="202.53967"
           id="text1-0"><tspan
             sodipodi:role="line"
             id="tspan1-6"
             style="font-style:normal;font-variant:normal;font-weight:500;font-stretch:normal;font-family:Poppins;-inkscape-font-specification:'Poppins Medium';fill:url(#linearGradient12);fill-opacity:1;stroke-width:11.5181"
             x="16.310755"
             y="202.53967"><tspan
               style="font-style:normal;font-variant:normal;font-weight:normal;font-stretch:normal;font-family:Poppins;-inkscape-font-specification:Poppins;fill:url(#linearGradient12);stroke-width:11.5181"
               id="tspan25-2">Calor</tspan><tspan
               style="font-style:normal;font-variant:normal;font-weight:600;font-stretch:normal;font-family:Poppins;-inkscape-font-specification:'Poppins Semi-Bold';fill:url(#linearGradient12);stroke-width:11.5181"
               id="tspan24-6">ify</tspan></tspan></text></g></g><g
       id="path3" /><text
       xml:space="preserve"
       style="font-style:normal;font-variant:normal;font-weight:normal;font-stretch:normal;font-size:7.7611px;font-family:Poppins;-inkscape-font-specification:Poppins;fill:#000000;fill-opacity:1;stroke:#a44a4a;stroke-width:2.5;stroke-dasharray:none;stroke-opacity:1"
       x="55.490231"
       y="256.67395"
       id="text26"><tspan
         sodipodi:role="line"
         id="tspan26"
         style="stroke-width:2.5" /></text></g><g
     inkscape:groupmode="layer"
     id="layer2"
     inkscape:label="hilfe"
     style="display:none"><rect
       style="fill:#000000;fill-opacity:1;stroke-width:0.858284"
       id="rect2"
       width="285.75"
       height="1.0583333"
       x="0"
       y="94.720833" /><rect
       style="fill:#000000;fill-opacity:1;stroke-width:0.858284"
       id="rect3"
       width="285.75"
       height="1.0583333"
       x="0"
       y="189.97084" /></g></svg>
